<?xml version="1.0" encoding="UTF-8" standalone="no"?>
<!DOCTYPE svg PUBLIC "-//W3C//DTD SVG 1.1//EN" "http://www.w3.org/Graphics/SVG/1.1/DTD/svg11.dtd">
<svg xmlns="http://www.w3.org/2000/svg" version="1.1" viewBox="0.00 0.00 253.00 235.00">
<clipPath id="clipping-path-0">
<path d="
  M 0.00 0.00
  L 253.00 0.00
  L 253.00 235.00
  L 0.00 235.00
  L 0.00 0.00
  Z"/>
</clipPath>
<g stroke-width="2.00" fill="none" stroke-linecap="butt" clip-path="url(#clipping-path-0)">
<path stroke="#edebce" vector-effect="non-scaling-stroke" d="
  M 161.24 79.84
  Q 161.20 79.75 161.16 79.66"
/>
<path stroke="#7b7e61" vector-effect="non-scaling-stroke" d="
  M 161.16 79.66
  C 156.10 72.61 147.69 66.89 140.11 62.84
  Q 139.67 62.60 139.40 62.17
  Q 138.75 61.16 137.93 60.30
  C 127.66 49.50 116.90 38.48 102.81 32.12
  C 97.88 29.90 92.17 28.94 86.74 27.68
  Q 86.06 27.53 85.43 28.33"
/>
<path stroke="#8d9393" vector-effect="non-scaling-stroke" d="
  M 161.16 79.66
  L 163.10 83.81
  Q 163.31 84.26 163.80 84.21
  C 171.34 83.38 178.77 85.35 185.62 87.66
  Q 189.46 88.95 185.41 89.13
  C 178.40 89.45 169.24 92.09 164.47 97.14
  Q 163.90 97.74 164.72 97.67
  C 170.17 97.23 175.61 99.07 180.98 99.98"
/>
<path stroke="#8d9393" vector-effect="non-scaling-stroke" d="
  M 163.79 110.95
  Q 163.29 111.53 164.04 112.10
  Q 165.54 113.25 163.66 113.43
  C 161.03 113.68 157.37 113.56 155.52 115.74
  Q 153.31 118.34 153.12 122.25
  Q 152.97 125.54 153.13 126.42"
/>
<path stroke="#8d9393" vector-effect="non-scaling-stroke" d="
  M 151.68 132.67
  L 167.25 141.99"
/>
<path stroke="#8d9393" vector-effect="non-scaling-stroke" d="
  M 167.52 147.38
  L 148.44 159.78
  Q 148.30 159.87 148.38 160.02
  L 148.39 160.03
  Q 148.47 160.18 148.63 160.10
  L 166.81 151.36"
/>
<path stroke="#8d9393" vector-effect="non-scaling-stroke" d="
  M 105.82 166.62
  L 97.97 160.43"
/>
<path stroke="#6e8482" vector-effect="non-scaling-stroke" d="
  M 92.78 154.94
  Q 92.96 154.76 92.95 154.43
  C 92.90 153.69 92.01 152.69 91.90 151.73
  Q 91.83 151.12 92.39 151.38
  L 110.89 160.03
  Q 110.93 160.04 110.94 160.01
  L 111.08 159.77
  Q 111.20 159.56 111.00 159.41
  L 90.41 145.04"
/>
<path stroke="#6e8482" vector-effect="non-scaling-stroke" d="
  M 90.64 141.60
  C 94.94 136.92 102.01 134.08 107.81 132.18
  Q 108.34 132.01 108.09 131.52
  Q 106.29 127.92 105.90 123.92"
/>
<path stroke="#217978" vector-effect="non-scaling-stroke" d="
  M 105.90 123.92
  L 105.30 118.73"
/>
<path stroke="#8d9393" vector-effect="non-scaling-stroke" d="
  M 105.30 118.73
  Q 104.57 116.02 102.31 114.69
  A 1.28 1.27 -32.7 0 0 101.51 114.52
  L 90.96 115.92
  A 0.58 0.57 -63.8 0 1 90.60 114.85
  Q 91.47 114.33 92.30 112.83"
/>
<path stroke="#8d9393" vector-effect="non-scaling-stroke" d="
  M 75.73 96.96
  L 86.57 97.28"
/>
<path stroke="#7b7e61" vector-effect="non-scaling-stroke" d="
  M 86.57 97.28
  L 105.35 98.92
  Q 105.84 98.96 105.43 98.70
  L 99.46 94.84"
/>
<path stroke="#8d9393" vector-effect="non-scaling-stroke" d="
  M 99.46 94.84
  L 93.33 90.76"
/>
<path stroke="#7b7e61" vector-effect="non-scaling-stroke" d="
  M 58.54 78.66
  Q 63.89 76.67 67.28 76.02
  Q 81.50 73.26 95.67 76.34
  Q 96.41 76.50 95.95 75.89
  Q 94.71 74.24 92.32 72.69
  Q 85.93 68.55 80.24 67.47"
/>
<path stroke="#8d9393" vector-effect="non-scaling-stroke" d="
  M 70.91 63.57
  Q 70.81 62.87 71.54 62.67"
/>
<path stroke="#7b7e61" vector-effect="non-scaling-stroke" d="
  M 71.54 62.67
  Q 75.09 62.36 78.51 62.98
  C 91.60 65.35 112.53 67.31 119.49 80.95
  Q 120.12 82.18 120.14 80.80
  C 120.22 75.81 118.91 65.15 113.74 62.30"
/>
<path stroke="#8d9393" vector-effect="non-scaling-stroke" d="
  M 113.74 62.30
  Q 113.47 62.14 113.34 61.90
  A 0.35 0.35 0.0 0 1 113.61 61.39
  L 119.99 60.67
  A 0.29 0.29 0.0 0 0 120.11 60.14
  C 116.11 57.64 111.23 57.44 106.88 56.36"
/>
<path stroke="#edebce" vector-effect="non-scaling-stroke" d="
  M 113.74 62.30
  Q 114.04 62.63 113.72 63.03
  Q 113.50 63.31 113.16 63.20
  C 107.25 61.32 100.89 61.50 94.75 60.97
  Q 88.00 60.40 78.40 62.12
  Q 78.25 62.15 78.13 62.23
  Q 77.99 62.32 77.85 62.42
  Q 77.55 62.62 77.19 62.62
  L 71.54 62.67"
/>
<path stroke="#75d6d4" vector-effect="non-scaling-stroke" d="
  M 105.90 123.92
  Q 101.36 125.67 96.98 127.66
  Q 96.30 127.97 95.54 127.71"
/>
<path stroke="#94e5e5" vector-effect="non-scaling-stroke" d="
  M 105.30 118.73
  L 93.84 123.15"
/>
<path stroke="#edebce" vector-effect="non-scaling-stroke" d="
  M 99.46 94.84
  Q 92.43 94.62 86.57 97.28"
/>
<path stroke="#e1f0ee" vector-effect="non-scaling-stroke" d="
  M 165.78 139.34
  Q 159.97 136.60 154.75 132.40"
/>
<path stroke="#8d9393" vector-effect="non-scaling-stroke" d="
  M 114.06 100.27
  C 105.05 106.39 106.30 118.80 116.17 123.13
  A 0.84 0.83 -76.8 0 1 116.67 123.94
  C 116.18 133.25 126.41 139.94 134.77 136.07
  Q 142.21 132.62 142.48 123.93
  Q 142.50 123.40 142.98 123.18
  Q 151.66 119.12 150.93 109.37
  A 0.40 0.39 69.9 0 0 150.31 109.08
  L 146.83 111.51
  Q 145.91 112.15 146.47 111.18
  Q 148.17 108.16 148.77 104.74
  Q 148.86 104.22 148.57 103.79
  Q 147.00 101.49 144.42 100.00"
/>
<path stroke="#7b7e61" vector-effect="non-scaling-stroke" d="
  M 144.42 100.00
  Q 147.17 94.78 147.77 89.21
  Q 147.86 88.31 147.27 88.99
  C 145.76 90.70 142.69 94.89 139.99 93.47
  Q 139.49 93.21 139.36 93.75
  Q 138.42 97.61 137.18 99.67
  Q 134.30 104.45 131.20 109.67"
/>
<path stroke="#8d9393" vector-effect="non-scaling-stroke" d="
  M 131.20 109.67
  Q 131.31 110.49 130.56 110.64
  Q 130.21 110.70 130.29 110.36
  L 132.45 100.32
  Q 132.70 99.16 131.78 99.92
  L 130.33 101.11
  Q 129.51 101.79 128.73 101.08
  Q 127.27 99.76 125.40 99.25
  Q 124.90 99.12 124.50 99.45
  Q 121.58 101.89 119.79 105.22
  Q 119.47 105.82 120.15 105.89
  L 121.04 105.98
  Q 121.55 106.03 121.54 106.54
  L 121.51 109.26
  Q 121.51 109.77 122.01 109.77
  L 124.50 109.76
  Q 125.49 109.76 125.49 110.75
  L 125.48 112.26
  Q 125.48 113.25 124.49 113.24
  L 122.04 113.20
  Q 121.54 113.20 121.53 113.71
  L 121.50 116.46
  Q 121.49 117.17 120.78 117.17
  L 119.01 117.15
  Q 118.36 117.15 118.32 116.51
  L 118.11 113.75
  Q 118.07 113.20 117.51 113.21
  L 115.01 113.25
  A 0.74 0.74 0.0 0 1 114.26 112.51
  L 114.25 110.48
  Q 114.25 109.76 114.96 109.75
  L 116.73 109.72"
/>
<path stroke="#6e8482" vector-effect="non-scaling-stroke" d="
  M 116.73 109.72
  Q 116.83 110.74 117.43 111.25
  Q 117.90 111.66 117.88 111.04
  Q 117.57 98.86 120.98 87.20
  Q 121.32 86.05 120.39 86.82
  C 116.99 89.65 115.80 93.15 115.27 97.53
  Q 115.00 99.70 114.06 100.27"
/>
<path stroke="#e1f0ee" vector-effect="non-scaling-stroke" d="
  M 116.73 109.72
  Q 116.87 109.65 117.04 109.63
  Q 117.36 109.59 117.37 109.26
  Q 117.38 109.11 117.38 108.97
  Q 117.38 108.77 117.23 108.67
  C 116.20 107.96 115.61 107.25 115.57 105.91
  Q 115.45 102.58 114.06 100.27"
/>
<path stroke="#8d9393" vector-effect="non-scaling-stroke" d="
  M 138.51 107.24
  C 138.25 109.03 140.50 110.15 141.49 108.33
  A 1.56 1.55 -52.3 0 0 141.26 106.52
  Q 140.62 105.85 139.69 106.05"
/>
<path stroke="#edebce" vector-effect="non-scaling-stroke" d="
  M 144.42 100.00
  Q 142.38 102.41 139.90 104.65
  Q 138.54 105.87 139.69 106.05"
/>
<path stroke="#7b7e61" vector-effect="non-scaling-stroke" d="
  M 139.69 106.05
  Q 139.00 106.40 138.51 107.24"
/>
<path stroke="#edebce" vector-effect="non-scaling-stroke" d="
  M 138.51 107.24
  Q 137.34 106.74 136.68 107.42
  Q 134.32 109.85 131.20 109.67"
/>
<path stroke="#8d9393" vector-effect="non-scaling-stroke" d="
  M 130.26 160.41
  L 154.48 148.07"
/>
<path stroke="#7b7e61" vector-effect="non-scaling-stroke" d="
  M 154.48 148.07
  L 161.73 143.58
  A 0.44 0.43 -42.0 0 0 161.77 142.87
  C 160.93 142.20 157.98 143.27 155.98 141.96
  Q 152.30 139.54 148.60 137.05
  Q 148.15 136.75 147.72 137.07
  Q 146.76 137.76 146.29 139.07"
/>
<path stroke="#8d9393" vector-effect="non-scaling-stroke" d="
  M 146.29 139.07
  L 138.36 147.46"
/>
<path stroke="#6e8482" vector-effect="non-scaling-stroke" d="
  M 119.68 146.76
  C 116.51 143.30 113.95 140.53 111.18 136.55
  Q 110.88 136.11 110.45 136.41
  L 101.57 142.52
  Q 101.12 142.83 100.58 142.81
  Q 98.66 142.77 96.75 142.68
  Q 96.29 142.65 96.16 142.83
  A 0.54 0.53 36.3 0 0 96.28 143.58
  Q 100.30 146.49 104.62 148.70
  Q 115.00 153.98 125.54 158.88
  Q 128.85 160.41 130.26 160.41"
/>
<path stroke="#e1f0ee" vector-effect="non-scaling-stroke" d="
  M 129.97 159.49
  Q 129.76 159.64 130.26 160.41"
/>
<path stroke="#edebce" vector-effect="non-scaling-stroke" d="
  M 154.48 148.07
  Q 148.15 144.54 146.29 139.07"
/>
<path stroke="#7b7e61" vector-effect="non-scaling-stroke" d="
  M 129.36 174.38
  A 0.28 0.28 0.0 0 1 128.85 174.38
  Q 126.02 167.61 120.00 164.44
  Q 117.03 162.88 119.64 164.98
  Q 127.51 171.33 128.83 182.66
  Q 128.84 182.77 128.90 182.82
  Q 129.00 182.90 129.15 182.87
  Q 129.35 182.82 129.37 182.62
  Q 130.59 171.35 139.28 164.18
  Q 140.52 163.16 139.10 163.90
  Q 132.30 167.39 129.36 174.38"
/>
<path stroke="#8d9393" vector-effect="non-scaling-stroke" d="
  M 137.79 111.52
  A 1.63 1.63 0.0 0 0 136.16 109.89
  A 1.63 1.63 0.0 0 0 134.53 111.52
  A 1.63 1.63 0.0 0 0 136.16 113.15
  A 1.63 1.63 0.0 0 0 137.79 111.52"
/>
<path stroke="#8d9393" vector-effect="non-scaling-stroke" d="
  M 145.63 111.52
  A 1.64 1.64 0.0 0 0 143.99 109.88
  A 1.64 1.64 0.0 0 0 142.35 111.52
  A 1.64 1.64 0.0 0 0 143.99 113.16
  A 1.64 1.64 0.0 0 0 145.63 111.52"
/>
<path stroke="#8d9393" vector-effect="non-scaling-stroke" d="
  M 141.71 115.43
  A 1.65 1.65 0.0 0 0 140.06 113.78
  A 1.65 1.65 0.0 0 0 138.41 115.43
  A 1.65 1.65 0.0 0 0 140.06 117.08
  A 1.65 1.65 0.0 0 0 141.71 115.43"
/>
<path stroke="#8d9393" vector-effect="non-scaling-stroke" d="
  M 128.37 124.73
  A 1.15 1.15 0.0 0 0 127.22 123.58
  A 1.15 1.15 0.0 0 0 126.07 124.73
  A 1.15 1.15 0.0 0 0 127.22 125.88
  A 1.15 1.15 0.0 0 0 128.37 124.73"
/>
<path stroke="#8d9393" vector-effect="non-scaling-stroke" d="
  M 132.19 124.72
  A 1.17 1.17 0.0 0 0 131.02 123.55
  A 1.17 1.17 0.0 0 0 129.85 124.72
  A 1.17 1.17 0.0 0 0 131.02 125.89
  A 1.17 1.17 0.0 0 0 132.19 124.72"
/>
</g>
<path fill="#dbd69c" d="
  M 161.24 79.84
  Q 161.20 79.75 161.16 79.66
  C 156.10 72.61 147.69 66.89 140.11 62.84
  Q 139.67 62.60 139.40 62.17
  Q 138.75 61.16 137.93 60.30
  C 127.66 49.50 116.90 38.48 102.81 32.12
  C 97.88 29.90 92.17 28.94 86.74 27.68
  Q 86.06 27.53 85.43 28.33
  L 84.89 27.92
  A 0.32 0.31 -32.9 0 1 85.01 27.37
  Q 88.52 26.44 92.25 26.74
  Q 97.56 27.16 102.84 27.89
  Q 119.20 30.18 129.58 42.90
  Q 135.68 50.35 139.28 60.01
  C 140.36 62.90 145.93 62.18 148.53 63.07
  C 156.35 65.75 159.56 72.15 161.24 79.84
  Z"
/>
<path fill="#1a2626" d="
  M 161.16 79.66
  L 163.10 83.81
  Q 163.31 84.26 163.80 84.21
  C 171.34 83.38 178.77 85.35 185.62 87.66
  Q 189.46 88.95 185.41 89.13
  C 178.40 89.45 169.24 92.09 164.47 97.14
  Q 163.90 97.74 164.72 97.67
  C 170.17 97.23 175.61 99.07 180.98 99.98
  Q 182.57 100.30 183.18 101.16
  Q 183.55 101.67 182.92 101.71
  C 176.76 102.11 165.68 103.16 160.99 107.49
  A 1.49 1.48 45.4 0 0 160.98 109.67
  Q 162.18 110.80 163.79 110.95
  Q 163.29 111.53 164.04 112.10
  Q 165.54 113.25 163.66 113.43
  C 161.03 113.68 157.37 113.56 155.52 115.74
  Q 153.31 118.34 153.12 122.25
  Q 152.97 125.54 153.13 126.42
  Q 150.09 132.15 151.68 132.67
  L 167.25 141.99
  Q 168.18 144.65 167.52 147.38
  L 148.44 159.78
  Q 148.30 159.87 148.38 160.02
  L 148.39 160.03
  Q 148.47 160.18 148.63 160.10
  L 166.81 151.36
  C 164.32 157.50 160.66 159.43 155.95 163.40
  Q 142.65 174.60 129.41 185.87
  Q 129.03 186.19 128.66 185.87
  L 105.82 166.62
  L 97.97 160.43
  L 92.78 154.94
  Q 92.96 154.76 92.95 154.43
  C 92.90 153.69 92.01 152.69 91.90 151.73
  Q 91.83 151.12 92.39 151.38
  L 110.89 160.03
  Q 110.93 160.04 110.94 160.01
  L 111.08 159.77
  Q 111.20 159.56 111.00 159.41
  L 90.41 145.04
  Q 90.06 143.70 90.64 141.60
  C 94.94 136.92 102.01 134.08 107.81 132.18
  Q 108.34 132.01 108.09 131.52
  Q 106.29 127.92 105.90 123.92
  L 105.30 118.73
  Q 104.57 116.02 102.31 114.69
  A 1.28 1.27 -32.7 0 0 101.51 114.52
  L 90.96 115.92
  A 0.58 0.57 -63.8 0 1 90.60 114.85
  Q 91.47 114.33 92.30 112.83
  L 99.32 107.16
  Q 99.64 106.90 99.25 106.76
  L 76.04 98.18
  A 0.71 0.67 -4.9 0 1 75.71 97.92
  Q 75.18 97.07 75.73 96.96
  L 86.57 97.28
  L 105.35 98.92
  Q 105.84 98.96 105.43 98.70
  L 99.46 94.84
  L 93.33 90.76
  Q 89.11 87.09 85.42 85.31
  Q 74.01 79.81 58.54 78.66
  Q 63.89 76.67 67.28 76.02
  Q 81.50 73.26 95.67 76.34
  Q 96.41 76.50 95.95 75.89
  Q 94.71 74.24 92.32 72.69
  Q 85.93 68.55 80.24 67.47
  L 70.91 63.57
  Q 70.81 62.87 71.54 62.67
  Q 75.09 62.36 78.51 62.98
  C 91.60 65.35 112.53 67.31 119.49 80.95
  Q 120.12 82.18 120.14 80.80
  C 120.22 75.81 118.91 65.15 113.74 62.30
  Q 113.47 62.14 113.34 61.90
  A 0.35 0.35 0.0 0 1 113.61 61.39
  L 119.99 60.67
  A 0.29 0.29 0.0 0 0 120.11 60.14
  C 116.11 57.64 111.23 57.44 106.88 56.36
  C 107.64 43.70 96.11 33.32 85.43 28.33
  Q 86.06 27.53 86.74 27.68
  C 92.17 28.94 97.88 29.90 102.81 32.12
  C 116.90 38.48 127.66 49.50 137.93 60.30
  Q 138.75 61.16 139.40 62.17
  Q 139.67 62.60 140.11 62.84
  C 147.69 66.89 156.10 72.61 161.16 79.66
  Z
  M 114.06 100.27
  C 105.05 106.39 106.30 118.80 116.17 123.13
  A 0.84 0.83 -76.8 0 1 116.67 123.94
  C 116.18 133.25 126.41 139.94 134.77 136.07
  Q 142.21 132.62 142.48 123.93
  Q 142.50 123.40 142.98 123.18
  Q 151.66 119.12 150.93 109.37
  A 0.40 0.39 69.9 0 0 150.31 109.08
  L 146.83 111.51
  Q 145.91 112.15 146.47 111.18
  Q 148.17 108.16 148.77 104.74
  Q 148.86 104.22 148.57 103.79
  Q 147.00 101.49 144.42 100.00
  Q 147.17 94.78 147.77 89.21
  Q 147.86 88.31 147.27 88.99
  C 145.76 90.70 142.69 94.89 139.99 93.47
  Q 139.49 93.21 139.36 93.75
  Q 138.42 97.61 137.18 99.67
  Q 134.30 104.45 131.20 109.67
  Q 131.31 110.49 130.56 110.64
  Q 130.21 110.70 130.29 110.36
  L 132.45 100.32
  Q 132.70 99.16 131.78 99.92
  L 130.33 101.11
  Q 129.51 101.79 128.73 101.08
  Q 127.27 99.76 125.40 99.25
  Q 124.90 99.12 124.50 99.45
  Q 121.58 101.89 119.79 105.22
  Q 119.47 105.82 120.15 105.89
  L 121.04 105.98
  Q 121.55 106.03 121.54 106.54
  L 121.51 109.26
  Q 121.51 109.77 122.01 109.77
  L 124.50 109.76
  Q 125.49 109.76 125.49 110.75
  L 125.48 112.26
  Q 125.48 113.25 124.49 113.24
  L 122.04 113.20
  Q 121.54 113.20 121.53 113.71
  L 121.50 116.46
  Q 121.49 117.17 120.78 117.17
  L 119.01 117.15
  Q 118.36 117.15 118.32 116.51
  L 118.11 113.75
  Q 118.07 113.20 117.51 113.21
  L 115.01 113.25
  A 0.74 0.74 0.0 0 1 114.26 112.51
  L 114.25 110.48
  Q 114.25 109.76 114.96 109.75
  L 116.73 109.72
  Q 116.83 110.74 117.43 111.25
  Q 117.90 111.66 117.88 111.04
  Q 117.57 98.86 120.98 87.20
  Q 121.32 86.05 120.39 86.82
  C 116.99 89.65 115.80 93.15 115.27 97.53
  Q 115.00 99.70 114.06 100.27
  Z
  M 130.26 160.41
  L 154.48 148.07
  L 161.73 143.58
  A 0.44 0.43 -42.0 0 0 161.77 142.87
  C 160.93 142.20 157.98 143.27 155.98 141.96
  Q 152.30 139.54 148.60 137.05
  Q 148.15 136.75 147.72 137.07
  Q 146.76 137.76 146.29 139.07
  L 138.36 147.46
  Q 128.67 152.73 119.68 146.76
  C 116.51 143.30 113.95 140.53 111.18 136.55
  Q 110.88 136.11 110.45 136.41
  L 101.57 142.52
  Q 101.12 142.83 100.58 142.81
  Q 98.66 142.77 96.75 142.68
  Q 96.29 142.65 96.16 142.83
  A 0.54 0.53 36.3 0 0 96.28 143.58
  Q 100.30 146.49 104.62 148.70
  Q 115.00 153.98 125.54 158.88
  Q 128.85 160.41 130.26 160.41
  Z
  M 129.36 174.38
  A 0.28 0.28 0.0 0 1 128.85 174.38
  Q 126.02 167.61 120.00 164.44
  Q 117.03 162.88 119.64 164.98
  Q 127.51 171.33 128.83 182.66
  Q 128.84 182.77 128.90 182.82
  Q 129.00 182.90 129.15 182.87
  Q 129.35 182.82 129.37 182.62
  Q 130.59 171.35 139.28 164.18
  Q 140.52 163.16 139.10 163.90
  Q 132.30 167.39 129.36 174.38
  Z"
/>
<path fill="#ffffff" d="
  M 106.88 56.36
  C 111.23 57.44 116.11 57.64 120.11 60.14
  A 0.29 0.29 0.0 0 1 119.99 60.67
  L 113.61 61.39
  A 0.35 0.35 0.0 0 0 113.34 61.90
  Q 113.47 62.14 113.74 62.30
  Q 114.04 62.63 113.72 63.03
  Q 113.50 63.31 113.16 63.20
  C 107.25 61.32 100.89 61.50 94.75 60.97
  Q 88.00 60.40 78.40 62.12
  Q 78.25 62.15 78.13 62.23
  Q 77.99 62.32 77.85 62.42
  Q 77.55 62.62 77.19 62.62
  L 71.54 62.67
  Q 70.81 62.87 70.91 63.57
  Q 70.46 63.36 70.33 63.09
  Q 70.20 62.83 70.50 62.47
  Q 71.31 61.51 72.52 61.16
  Q 89.20 56.37 106.88 56.36
  Z"
/>
<path fill="#dbd69c" d="
  M 113.74 62.30
  C 118.91 65.15 120.22 75.81 120.14 80.80
  Q 120.12 82.18 119.49 80.95
  C 112.53 67.31 91.60 65.35 78.51 62.98
  Q 75.09 62.36 71.54 62.67
  L 77.19 62.62
  Q 77.55 62.62 77.85 62.42
  Q 77.99 62.32 78.13 62.23
  Q 78.25 62.15 78.40 62.12
  Q 88.00 60.40 94.75 60.97
  C 100.89 61.50 107.25 61.32 113.16 63.20
  Q 113.50 63.31 113.72 63.03
  Q 114.04 62.63 113.74 62.30
  Z"
/>
<path fill="#dbd69c" d="
  M 80.24 67.47
  Q 85.93 68.55 92.32 72.69
  Q 94.71 74.24 95.95 75.89
  Q 96.41 76.50 95.67 76.34
  Q 81.50 73.26 67.28 76.02
  Q 63.89 76.67 58.54 78.66
  Q 67.55 67.90 80.24 67.47
  Z"
/>
<path fill="#ffffff" d="
  M 161.24 79.84
  Q 171.92 81.08 181.82 84.94
  C 184.19 85.86 189.96 82.27 192.85 81.28
  A 3.27 3.26 -21.9 0 1 196.86 82.98
  L 197.25 83.80
  Q 198.94 87.38 195.36 89.10
  L 178.31 97.30
  A 0.45 0.45 0.0 0 0 178.24 98.07
  L 180.98 99.98
  C 175.61 99.07 170.17 97.23 164.72 97.67
  Q 163.90 97.74 164.47 97.14
  C 169.24 92.09 178.40 89.45 185.41 89.13
  Q 189.46 88.95 185.62 87.66
  C 178.77 85.35 171.34 83.38 163.80 84.21
  Q 163.31 84.26 163.10 83.81
  L 161.16 79.66
  Q 161.20 79.75 161.24 79.84
  Z"
/>
<path fill="#c2e1dd" d="
  M 116.73 109.72
  Q 116.87 109.65 117.04 109.63
  Q 117.36 109.59 117.37 109.26
  Q 117.38 109.11 117.38 108.97
  Q 117.38 108.77 117.23 108.67
  C 116.20 107.96 115.61 107.25 115.57 105.91
  Q 115.45 102.58 114.06 100.27
  Q 115.00 99.70 115.27 97.53
  C 115.80 93.15 116.99 89.65 120.39 86.82
  Q 121.32 86.05 120.98 87.20
  Q 117.57 98.86 117.88 111.04
  Q 117.90 111.66 117.43 111.25
  Q 116.83 110.74 116.73 109.72
  Z"
/>
<path fill="#dbd69c" d="
  M 144.42 100.00
  Q 142.38 102.41 139.90 104.65
  Q 138.54 105.87 139.69 106.05
  Q 139.00 106.40 138.51 107.24
  Q 137.34 106.74 136.68 107.42
  Q 134.32 109.85 131.20 109.67
  Q 134.30 104.45 137.18 99.67
  Q 138.42 97.61 139.36 93.75
  Q 139.49 93.21 139.99 93.47
  C 142.69 94.89 145.76 90.70 147.27 88.99
  Q 147.86 88.31 147.77 89.21
  Q 147.17 94.78 144.42 100.00
  Z"
/>
<path fill="#ffffff" d="
  M 93.33 90.76
  L 99.46 94.84
  Q 92.43 94.62 86.57 97.28
  L 75.73 96.96
  L 93.33 90.76
  Z"
/>
<path fill="#dbd69c" d="
  M 99.46 94.84
  L 105.43 98.70
  Q 105.84 98.96 105.35 98.92
  L 86.57 97.28
  Q 92.43 94.62 99.46 94.84
  Z"
/>
<rect fill="#c2e1dd" x="-16.76" y="-4.18" transform="translate(201.20,107.06) rotate(-27.5)" width="33.52" height="8.36" rx="3.71"/>
<path fill="#ffffff" d="
  M 131.20 109.67
  Q 134.32 109.85 136.68 107.42
  Q 137.34 106.74 138.51 107.24
  C 138.25 109.03 140.50 110.15 141.49 108.33
  A 1.56 1.55 -52.3 0 0 141.26 106.52
  Q 140.62 105.85 139.69 106.05
  Q 138.54 105.87 139.90 104.65
  Q 142.38 102.41 144.42 100.00
  Q 147.00 101.49 148.57 103.79
  Q 148.86 104.22 148.77 104.74
  Q 148.17 108.16 146.47 111.18
  Q 145.91 112.15 146.83 111.51
  L 150.31 109.08
  A 0.40 0.39 69.9 0 1 150.93 109.37
  Q 151.66 119.12 142.98 123.18
  Q 142.50 123.40 142.48 123.93
  Q 142.21 132.62 134.77 136.07
  C 126.41 139.94 116.18 133.25 116.67 123.94
  A 0.84 0.83 -76.8 0 0 116.17 123.13
  C 106.30 118.80 105.05 106.39 114.06 100.27
  Q 115.45 102.58 115.57 105.91
  C 115.61 107.25 116.20 107.96 117.23 108.67
  Q 117.38 108.77 117.38 108.97
  Q 117.38 109.11 117.37 109.26
  Q 117.36 109.59 117.04 109.63
  Q 116.87 109.65 116.73 109.72
  L 114.96 109.75
  Q 114.25 109.76 114.25 110.48
  L 114.26 112.51
  A 0.74 0.74 0.0 0 0 115.01 113.25
  L 117.51 113.21
  Q 118.07 113.20 118.11 113.75
  L 118.32 116.51
  Q 118.36 117.15 119.01 117.15
  L 120.78 117.17
  Q 121.49 117.17 121.50 116.46
  L 121.53 113.71
  Q 121.54 113.20 122.04 113.20
  L 124.49 113.24
  Q 125.48 113.25 125.48 112.26
  L 125.49 110.75
  Q 125.49 109.76 124.50 109.76
  L 122.01 109.77
  Q 121.51 109.77 121.51 109.26
  L 121.54 106.54
  Q 121.55 106.03 121.04 105.98
  L 120.15 105.89
  Q 119.47 105.82 119.79 105.22
  Q 121.58 101.89 124.50 99.45
  Q 124.90 99.12 125.40 99.25
  Q 127.27 99.76 128.73 101.08
  Q 129.51 101.79 130.33 101.11
  L 131.78 99.92
  Q 132.70 99.16 132.45 100.32
  L 130.29 110.36
  Q 130.21 110.70 130.56 110.64
  Q 131.31 110.49 131.20 109.67
  Z
  M 137.79 111.52
  A 1.63 1.63 0.0 0 0 136.16 109.89
  A 1.63 1.63 0.0 0 0 134.53 111.52
  A 1.63 1.63 0.0 0 0 136.16 113.15
  A 1.63 1.63 0.0 0 0 137.79 111.52
  Z
  M 145.63 111.52
  A 1.64 1.64 0.0 0 0 143.99 109.88
  A 1.64 1.64 0.0 0 0 142.35 111.52
  A 1.64 1.64 0.0 0 0 143.99 113.16
  A 1.64 1.64 0.0 0 0 145.63 111.52
  Z
  M 141.71 115.43
  A 1.65 1.65 0.0 0 0 140.06 113.78
  A 1.65 1.65 0.0 0 0 138.41 115.43
  A 1.65 1.65 0.0 0 0 140.06 117.08
  A 1.65 1.65 0.0 0 0 141.71 115.43
  Z
  M 128.37 124.73
  A 1.15 1.15 0.0 0 0 127.22 123.58
  A 1.15 1.15 0.0 0 0 126.07 124.73
  A 1.15 1.15 0.0 0 0 127.22 125.88
  A 1.15 1.15 0.0 0 0 128.37 124.73
  Z
  M 132.19 124.72
  A 1.17 1.17 0.0 0 0 131.02 123.55
  A 1.17 1.17 0.0 0 0 129.85 124.72
  A 1.17 1.17 0.0 0 0 131.02 125.89
  A 1.17 1.17 0.0 0 0 132.19 124.72
  Z"
/>
<path fill="#1a2626" d="
  M 139.69 106.05
  Q 140.62 105.85 141.26 106.52
  A 1.56 1.55 -52.3 0 1 141.49 108.33
  C 140.50 110.15 138.25 109.03 138.51 107.24
  Q 139.00 106.40 139.69 106.05
  Z"
/>
<path fill="#ffffff" d="
  M 153.13 126.42
  Q 152.97 125.54 153.12 122.25
  Q 153.31 118.34 155.52 115.74
  C 157.37 113.56 161.03 113.68 163.66 113.43
  Q 165.54 113.25 164.04 112.10
  Q 163.29 111.53 163.79 110.95
  L 174.34 106.21
  A 3.25 3.25 0.0 0 1 178.70 107.99
  L 179.05 108.89
  Q 180.59 112.83 176.80 114.70
  L 153.13 126.42
  Z"
/>
<circle fill="#1a2626" cx="136.16" cy="111.52" r="1.63"/>
<circle fill="#1a2626" cx="143.99" cy="111.52" r="1.64"/>
<path fill="#ffffff" d="
  M 92.30 112.83
  Q 91.47 114.33 90.60 114.85
  A 0.58 0.57 -63.8 0 0 90.96 115.92
  L 101.51 114.52
  A 1.28 1.27 -32.7 0 1 102.31 114.69
  Q 104.57 116.02 105.30 118.73
  L 93.84 123.15
  L 67.14 133.32
  A 3.18 3.17 68.1 0 1 63.08 131.58
  L 62.72 130.70
  Q 61.24 127.15 64.73 125.54
  L 92.30 112.83
  Z"
/>
<circle fill="#1a2626" cx="140.06" cy="115.43" r="1.65"/>
<path fill="#28cbca" d="
  M 105.30 118.73
  L 105.90 123.92
  Q 101.36 125.67 96.98 127.66
  Q 96.30 127.97 95.54 127.71
  Q 95.94 127.55 96.12 127.31
  Q 96.29 127.09 96.18 126.66
  Q 95.36 123.64 93.84 123.15
  L 105.30 118.73
  Z"
/>
<path fill="#c2e1dd" d="
  M 165.78 139.34
  Q 159.97 136.60 154.75 132.40
  Q 165.44 127.15 176.60 121.82
  Q 179.87 120.26 181.55 120.27
  C 185.46 120.28 188.09 125.54 185.78 128.76
  Q 184.85 130.04 182.05 131.43
  Q 174.18 135.36 165.78 139.34
  Z"
/>
<circle fill="#1a2626" cx="127.22" cy="124.73" r="1.15"/>
<circle fill="#1a2626" cx="131.02" cy="124.72" r="1.17"/>
<path fill="#c2e1dd" d="
  M 105.90 123.92
  Q 106.29 127.92 108.09 131.52
  Q 108.34 132.01 107.81 132.18
  C 102.01 134.08 94.94 136.92 90.64 141.60
  Q 85.25 143.84 80.35 146.07
  C 73.06 149.39 69.68 140.09 75.05 137.59
  Q 84.35 133.25 93.62 128.82
  Q 94.61 128.34 95.54 127.71
  Q 96.30 127.97 96.98 127.66
  Q 101.36 125.67 105.90 123.92
  Z"
/>
<path fill="#ffffff" d="
  M 154.75 132.40
  Q 159.97 136.60 165.78 139.34
  Q 166.99 140.51 167.25 141.99
  L 151.68 132.67
  Q 153.37 132.83 154.75 132.40
  Z"
/>
<path fill="#c2e1dd" d="
  M 119.68 146.76
  Q 121.89 150.15 128.29 159.24
  Q 128.89 160.10 129.97 159.49
  Q 129.76 159.64 130.26 160.41
  Q 128.85 160.41 125.54 158.88
  Q 115.00 153.98 104.62 148.70
  Q 100.30 146.49 96.28 143.58
  A 0.54 0.53 36.3 0 1 96.16 142.83
  Q 96.29 142.65 96.75 142.68
  Q 98.66 142.77 100.58 142.81
  Q 101.12 142.83 101.57 142.52
  L 110.45 136.41
  Q 110.88 136.11 111.18 136.55
  C 113.95 140.53 116.51 143.30 119.68 146.76
  Z"
/>
<path fill="#dbd69c" d="
  M 154.48 148.07
  Q 148.15 144.54 146.29 139.07
  Q 146.76 137.76 147.72 137.07
  Q 148.15 136.75 148.60 137.05
  Q 152.30 139.54 155.98 141.96
  C 157.98 143.27 160.93 142.20 161.77 142.87
  A 0.44 0.43 -42.0 0 1 161.73 143.58
  L 154.48 148.07
  Z"
/>
<path fill="#ffffff" d="
  M 146.29 139.07
  Q 148.15 144.54 154.48 148.07
  L 130.26 160.41
  Q 129.76 159.64 129.97 159.49
  L 138.36 147.46
  L 146.29 139.07
  Z"
/>
<rect fill="#ffffff" x="-12.85" y="-4.21" transform="translate(57.15,150.89) rotate(-25.2)" width="25.70" height="8.42" rx="4.08"/>
<path fill="#c2e1dd" d="
  M 90.41 145.04
  L 111.00 159.41
  Q 111.20 159.56 111.08 159.77
  L 110.94 160.01
  Q 110.93 160.04 110.89 160.03
  L 92.39 151.38
  Q 91.83 151.12 91.90 151.73
  C 92.01 152.69 92.90 153.69 92.95 154.43
  Q 92.96 154.76 92.78 154.94
  L 62.15 169.47
  A 3.31 3.31 0.0 0 1 57.71 167.81
  L 57.44 167.17
  A 2.58 2.57 -25.2 0 1 58.64 163.85
  Q 80.54 152.82 88.75 149.26
  Q 91.20 148.20 90.41 145.04
  Z"
/>
<path fill="#ffffff" d="
  M 167.52 147.38
  Q 167.59 149.49 166.81 151.36
  L 148.63 160.10
  Q 148.47 160.18 148.39 160.03
  L 148.38 160.02
  Q 148.30 159.87 148.44 159.78
  L 167.52 147.38
  Z"
/>
<path fill="#ffffff" d="
  M 97.97 160.43
  L 105.82 166.62
  Q 100.47 168.98 95.34 171.40
  C 91.09 173.41 87.40 168.56 89.81 165.37
  Q 90.57 164.36 93.41 163.00
  Q 95.71 161.90 97.97 160.43
  Z"
/>
<path fill="#dbd69c" d="
  M 129.36 174.38
  Q 132.30 167.39 139.10 163.90
  Q 140.52 163.16 139.28 164.18
  Q 130.59 171.35 129.37 182.62
  Q 129.35 182.82 129.15 182.87
  Q 129.00 182.90 128.90 182.82
  Q 128.84 182.77 128.83 182.66
  Q 127.51 171.33 119.64 164.98
  Q 117.03 162.88 120.00 164.44
  Q 126.02 167.61 128.85 174.38
  A 0.28 0.28 0.0 0 0 129.36 174.38
  Z"
/>
</svg>
